<?xml version="1.0" encoding="utf-8"?>
<!-- Generator: Adobe Illustrator 19.0.0, SVG Export Plug-In . SVG Version: 6.00 Build 0)  -->
<svg version="1.1" id="Calque_1" xmlns="http://www.w3.org/2000/svg" xmlns:xlink="http://www.w3.org/1999/xlink" x="0px" y="0px"
	 viewBox="0 0 100 100" style="enable-background:new 0 0 100 100;" xml:space="preserve">
<style type="text/css">
	.st0{fill:#D34B47;}
	.st1{fill:#FFFFFF;}
</style>
<g id="XMLID_8_">
	<path id="XMLID_13_" class="st0" d="M62.2,97l1-16l2.6-4.5c0,0-6,2.5-16.1,2.5c-10.1,0-16-2.4-16-2.4l3,4.9L37.7,97
		c0,1.7,5.5,3,12.3,3C56.7,100,62.2,98.7,62.2,97"/>
	<path id="XMLID_12_" class="st0" d="M59.2,22.3l2-8L72.4,2.6l-2.9-2.5L57.6,12.6l-2.3,9.5c-1.7-0.1-3.5-0.1-5.3-0.1
		c-12.4,0-22.5,1.4-22.5,3.2c0,1.7,10.1,3.2,22.5,3.2c12.4,0,22.5-1.4,22.5-3.2C72.5,23.9,67,22.8,59.2,22.3"/>
	<path id="XMLID_11_" class="st1" d="M58,26.8c0,0-0.4,0.1-1.7,0.1c-1.3,0-2.2,0-2.6-0.3c-0.1-0.1-0.2-0.3-0.2-0.4
		c0-0.2,0.2-0.4,0.4-0.4l0.2,0.3c-0.1,0-0.1,0.1-0.1,0.1c0,0.2,1.3,0.3,2.3,0.3c1,0,2.2-0.1,2.2-0.3c0-0.1-0.1-0.1-0.3-0.1l0.2-0.3
		c0.3,0.1,0.5,0.2,0.5,0.5C59,26.7,58.4,26.7,58,26.8"/>
	<path id="XMLID_10_" class="st0" d="M72.3,2.7c0.3-0.3-0.1-1.2-1-1.9c-0.8-0.7-1.7-1-2-0.7c-0.3,0.3,0.1,1.2,1,1.8
		C71.2,2.7,72.1,3,72.3,2.7"/>
	<path id="XMLID_9_" class="st0" d="M61.7,57.9c-0.3-2.5,5.6-6.2,4.1-6.3c-3.2,0.2-4.8,3.8-6.4,7.5c-0.6,1.4-2.6,7.3-4,6.5
		c-1.3-0.7,1.7-5.6,2.6-8.4c-1,0.7-4.6,3.5-5.6,0.9c-1.5,1.3-4.7,2-4.4-1.4c-0.8,1.4-2.6,3.4-4.7,2.6c-2.8-1.1,1.6-10.1,2.7-9.6
		c1.1,0.5-0.2,2.5-0.6,3.3c-0.8,1.8-1.7,4-1.1,4.4c1,0.8,3.8-2.9,3.8-3c0.5-0.7,2-5.2,3.2-4.6c1.2,0.5-3,6.4-1.4,7.6
		c0.3,0.2,1.6-0.1,2.4-1c0.5-0.5,0.3-1.8,2-5.8c1.7-4,3.2-9,4.3-8.6c1.2,0.4,0.2,2.9-0.2,3.9c-1.9,4.5-5.3,11.9-3.7,11.3
		c1.6-0.6,2.4-0.6,4-2.4c1.5-1.8,1.5-4.8,2.5-4.7c1,0.1,0.9,1,0.6,1.8c1-1.2,4.8-3.6,5.7-1.2c1.1,2.9-5.4,7-3.8,6.8
		c1.6-0.2,4.2-1.8,5.3-3.3l3-27.2c0,0-3,2.5-22.4,2.5c-19.3,0-22.1-2.5-22.1-2.5l2.6,24.8c1.4-3.9,4.6-11.7,9.7-11.5
		c2.3,0.1,5.4,4.6,2.8,4.7c-1.1,0.1-1.2-2.2-2.6-2.6c-1-0.2-2.3,0.5-3.2,1.4c-1.7,1.7-5.4,8.3-4.9,11.7c0.6,4.2,5.8-1.5,6.7-3.2
		c0.6-1.2,1-4.7,2.4-4.4c1.4,0.4-0.1,4-1.1,7.2c-1.1,3.6-1.7,7.4-3.1,7c-1.4-0.4,0.9-5.1,0.8-5.9c-1.3,1.2-3.7,4.3-6.8,2.7l1.6,15.4
		c0,0,4.2,3.4,17,3.4s17.2-3.3,17.2-3.3l2-17.8C67.2,58.3,62,61.1,61.7,57.9"/>
</g>
</svg>
