<?xml version="1.0" encoding="utf-8"?>
<!-- Generator: Adobe Illustrator 19.0.0, SVG Export Plug-In . SVG Version: 6.00 Build 0)  -->
<svg version="1.1" id="Calque_1" xmlns="http://www.w3.org/2000/svg" xmlns:xlink="http://www.w3.org/1999/xlink" x="0px" y="0px"
	 viewBox="-49 141 512 512" style="enable-background:new -49 141 512 512;" xml:space="preserve">
<style type="text/css">
	.st0{fill:#FFFFFF;}
</style>
<title>HTML5 Logo</title>
<g>
	<path class="st0" d="M274.3,631.9l4.8-79.9l13.2-22.6c0,0-30.1,12.3-80.6,12.3c-50.5,0-80.2-12.1-80.2-12.1l14.8,24.7l5.3,77.7
		c0,8.3,27.5,15.1,61.3,15.1C246.8,647,274.3,640.3,274.3,631.9"/>
	<path class="st0" d="M259.1,258.6l10.1-39.8l55.8-58.7l-14.7-12.5l-59,62.5l-11.7,47.6c-8.5-0.3-17.3-0.4-26.4-0.4
		c-62.2,0-112.6,7.1-112.6,15.8c0,8.7,50.4,15.8,112.6,15.8c62.2,0,112.6-7.1,112.6-15.8C325.7,266.7,298.4,261.1,259.1,258.6"/>
	<path class="st0" d="M253.3,280.9c0,0-2.2,0.5-8.6,0.5c-6.4,0-11,0-12.8-1.7c-0.5-0.4-0.8-1.3-0.8-1.9c0-1.1,0.8-1.8,1.8-2.2l1,1.5
		c-0.4,0.1-0.7,0.3-0.7,0.5c0,0.9,6.6,1.5,11.6,1.4c5-0.1,11.1-0.5,11.1-1.3c0-0.3-0.5-0.5-1.3-0.7l1-1.5c1.3,0.4,2.4,1.2,2.4,2.5
		C258.1,280.3,255.2,280.7,253.3,280.9"/>
	<path class="st0" d="M324.8,160.3c1.4-1.6-0.7-5.8-4.8-9.3c-4-3.5-8.4-5-9.8-3.4c-1.4,1.6,0.7,5.8,4.8,9.2
		C319,160.4,323.4,161.9,324.8,160.3"/>
	<path class="st0" d="M271.6,436.7c-1.3-12.7,27.8-31.1,20.3-31.7c-16.1,0.9-24.1,18.9-32.2,37.7c-3,6.9-13.1,36.3-19.8,32.6
		c-6.7-3.6,8.6-27.8,12.9-42.1c-4.9,3.6-23.1,17.7-27.8,4.5c-7.5,6.4-23.6,9.8-21.8-6.9c-4,7.1-13,17-23.7,12.9
		c-14.1-5.4,8.2-50.4,13.7-48.2c5.6,2.3-1.1,12.5-2.9,16.5c-3.8,8.8-8.3,19.8-5.3,22.1c5.1,3.9,18.9-14.6,19.2-15
		c2.6-3.4,10-25.8,15.9-23.2c5.9,2.6-14.8,32.1-7.1,38c1.6,1.2,8-0.7,11.9-4.9c2.5-2.7,1.7-8.8,10.1-28.8c8.4-20,15.9-45,21.7-43.1
		c5.8,1.9,1,14.7-1.1,19.5c-9.7,22.4-26.5,59.4-18.6,56.6c7.9-2.8,12-3,19.8-12c7.7-9.1,7.4-24,12.6-23.7c5.2,0.3,4.3,5.1,3,8.8
		c5.1-5.8,24.1-18.1,28.7-5.9c5.4,14.4-27.2,35.1-19.1,34.1c7.9-1,20.8-9.2,26.3-16.6l15.1-135.8c0,0-15.2,12.6-111.9,12.6
		c-96.7,0-110.3-12.3-110.3-12.3l12.9,124c6.8-19.4,23-58.6,48.6-57.3c11.6,0.6,27.1,23,13.8,23.7c-5.6,0.3-6.2-11.2-12.9-12.9
		c-4.8-1.2-11.5,2.7-15.8,6.9c-8.6,8.4-27.2,41.7-24.7,58.4c3.1,21.2,29.2-7.4,33.6-15.8c3.1-6,5.2-23.6,12-21.8
		c6.8,1.9-0.6,20.1-5.5,36.2c-5.5,18.1-8.4,37.2-15.4,35c-6.9-2.2,4.4-25.6,4-29.7c-6.5,6-18.5,21.3-33.9,13.7l8,77
		c0,0,21.2,16.8,85.2,16.8s86-16.5,86-16.5l9.9-89.2C298.9,438.5,273.2,452.5,271.6,436.7"/>
</g>
</svg>
