<?xml version="1.0" encoding="utf-8"?>
<!-- Generator: Adobe Illustrator 19.0.0, SVG Export Plug-In . SVG Version: 6.00 Build 0)  -->
<svg version="1.1" id="Calque_1" xmlns="http://www.w3.org/2000/svg" xmlns:xlink="http://www.w3.org/1999/xlink" x="0px" y="0px"
	 viewBox="0 0 100 100" style="enable-background:new 0 0 100 100;" xml:space="preserve">
<style type="text/css">
	.st0{fill:#D0659B;}
</style>
<path id="XMLID_7_" class="st0" d="M86.1,55.6c-3.5,0-6.5,0.8-9.1,2.1c-0.9-1.9-1.9-3.5-2-4.7c-0.2-1.4-0.4-2.3-0.2-3.9
	C75,47.4,76,45,76,44.8c0-0.2-0.2-1-2.2-1c-2,0-3.8,0.4-3.9,0.9c-0.2,0.5-0.6,1.7-0.8,3c-0.3,1.8-4,8.3-6.1,11.7
	c-0.7-1.3-1.3-2.5-1.4-3.4c-0.2-1.4-0.4-2.3-0.2-3.9c0.2-1.7,1.2-4.1,1.2-4.3c0-0.2-0.2-1-2.2-1c-2,0-3.8,0.4-3.9,0.9
	c-0.2,0.5-0.4,1.8-0.8,3c-0.4,1.2-5.3,12.1-6.6,14.9c-0.6,1.5-1.2,2.6-1.6,3.4c-0.4,0.8,0,0.1-0.1,0.1c-0.3,0.7-0.6,1-0.6,1v0
	c-0.3,0.5-0.6,1-0.7,1c-0.1,0-0.3-1.3,0-3.1c0.7-3.8,2.5-9.7,2.4-9.9c0-0.1,0.3-1.1-1.1-1.7c-1.4-0.5-1.9,0.3-2,0.3
	c-0.1,0-0.2,0.3-0.2,0.3s1.6-6.6-3-6.6c-2.9,0-6.9,3.1-8.8,6c-1.3,0.7-3.9,2.1-6.7,3.7c-1.1,0.6-2.2,1.2-3.2,1.8l-0.2-0.2
	C17.5,55.7,7.1,51.5,7.6,43.5c0.1-2.9,1.2-10.6,19.8-19.9C42.7,16,54.9,18.1,57,22.8c3,6.6-6.5,19-22.4,20.8
	c-6.1,0.7-9.2-1.7-10-2.5c-0.8-0.9-1-1-1.3-0.8c-0.5,0.3-0.2,1.1,0,1.6c0.5,1.2,2.4,3.4,5.7,4.5c2.9,1,10,1.5,18.6-1.8
	c9.6-3.7,17.1-14.1,14.9-22.7c-2.2-8.8-16.9-11.7-30.6-6.8c-8.2,2.9-17.1,7.5-23.5,13.5c-7.6,7.1-8.8,13.3-8.3,15.9
	c1.8,9.2,14.5,15.2,19.5,19.6c-0.3,0.1-0.5,0.3-0.7,0.4C16.4,65.6,6.7,70.6,4.3,76C1.6,82,4.7,86.4,6.8,87
	c6.5,1.8,13.2-1.5,16.8-6.8c3.6-5.4,3.1-12.3,1.5-15.5l-0.1-0.1l2-1.2c1.3-0.8,2.6-1.5,3.7-2.1c-0.6,1.7-1.1,3.7-1.3,6.6
	c-0.3,3.4,1.1,7.9,3,9.7c0.8,0.8,1.8,0.8,2.4,0.8c2.2,0,3.1-1.8,4.2-3.9c1.3-2.6,2.5-5.6,2.5-5.6S40.1,77,44.1,77
	c1.5,0,2.9-1.9,3.6-2.9v0c0,0,0-0.1,0.1-0.2c0.1-0.1,0.1-0.2,0.2-0.4v0c0.6-1,1.9-3.4,3.8-7.2c2.5-5,4.9-11.2,4.9-11.2s0.2,1.5,1,4
	c0.4,1.5,1.4,3.1,2.1,4.7c-0.6,0.8-0.9,1.3-0.9,1.3l0,0c-0.5,0.6-1,1.3-1.5,2c-2,2.4-4.4,5.1-4.7,5.9c-0.4,0.9-0.3,1.6,0.4,2.2
	c0.5,0.4,1.5,0.5,2.4,0.4c1.8-0.1,3-0.6,3.7-0.8c1-0.3,2.1-0.9,3.1-1.7c2-1.5,3.1-3.5,3-6.2c-0.1-1.5-0.6-3-1.2-4.4
	c0.2-0.3,0.3-0.5,0.5-0.8c3.1-4.5,5.5-9.5,5.5-9.5s0.2,1.5,1,4c0.4,1.3,1.1,2.7,1.8,4c-2.9,2.4-4.7,5.1-5.3,6.9
	c-1.2,3.3-0.3,4.8,1.5,5.2c0.8,0.1,1.9-0.2,2.7-0.6c1-0.3,2.2-0.9,3.4-1.7c2-1.5,3.8-3.5,3.7-6.2c-0.1-1.3-0.4-2.5-0.8-3.6
	c2.4-1,5.7-1.6,9.7-1.1c8.7,1,10.4,6.4,10.1,8.7c-0.3,2.3-2.2,3.5-2.7,3.9c-0.6,0.4-0.8,0.5-0.7,0.8c0.1,0.4,0.3,0.4,0.9,0.3
	c0.7-0.1,4.6-1.9,4.7-6C100.2,61.4,95.1,55.5,86.1,55.6L86.1,55.6z M19.1,78.2c-2.9,3.1-6.9,4.3-8.6,3.3c-1.9-1.1-1.1-5.7,2.4-9
	c2.2-2,4.9-3.9,6.8-5c0.4-0.3,1-0.6,1.8-1.1c0.1-0.1,0.2-0.1,0.2-0.1c0.1-0.1,0.3-0.2,0.4-0.3C23.3,70.7,22.1,74.9,19.1,78.2
	L19.1,78.2z M40,63.9c-1,2.4-3.1,8.7-4.4,8.4c-1.1-0.3-1.7-5-0.2-9.7c0.8-2.4,2.4-5.2,3.4-6.3c1.6-1.7,3.3-2.3,3.7-1.6
	C43.1,55.6,40.7,62.4,40,63.9z M57.4,72.2c-0.4,0.2-0.8,0.4-1,0.3c-0.1-0.1,0.2-0.4,0.2-0.4s2.2-2.3,3-3.4c0.5-0.6,1.1-1.3,1.7-2.2
	v0.2C61.3,69.6,58.6,71.4,57.4,72.2L57.4,72.2z M70.7,69.1c-0.3-0.2-0.3-1,0.8-3.2c0.4-0.9,1.3-2.4,3-3.8c0.2,0.6,0.3,1.2,0.3,1.7
	C74.7,67.3,72.2,68.6,70.7,69.1z"/>
</svg>
