<?xml version="1.0" encoding="utf-8"?>
<!-- Generator: Adobe Illustrator 19.0.0, SVG Export Plug-In . SVG Version: 6.00 Build 0)  -->
<svg version="1.1" id="Calque_1" xmlns="http://www.w3.org/2000/svg" xmlns:xlink="http://www.w3.org/1999/xlink" x="0px" y="0px"
	 viewBox="-49 141 512 512" style="enable-background:new -49 141 512 512;" xml:space="preserve">
<style type="text/css">
	.st0{fill:#FFFFFF;}
</style>
<title>HTML5 Logo</title>
<path class="st0" d="M366.6,426.8c-14.9,0.1-27.8,3.6-38.6,8.9c-4-7.9-7.9-14.8-8.7-20c-0.7-6-1.6-9.7-0.7-16.8
	c0.9-7.2,5.1-17.3,5.1-18.1c-0.1-0.7-0.9-4.3-9.4-4.5c-8.6-0.1-16,1.6-16.8,3.9c-0.7,2.2-2.5,7.5-3.6,12.7
	c-1.5,7.8-17.1,35.5-26.1,50.1c-2.9-5.7-5.5-10.7-6-14.7c-0.7-6-1.6-9.7-0.7-16.8c0.9-7.2,5.1-17.3,5.1-18.1
	c-0.1-0.7-0.9-4.3-9.4-4.5c-8.6-0.1-16,1.6-16.8,3.9c-0.7,2.2-1.7,7.6-3.6,12.7c-1.7,5.2-22.5,51.4-27.9,63.5
	c-2.7,6.2-5.2,11.1-7,14.4c-1.7,3.4-0.1,0.2-0.2,0.6c-1.5,2.9-2.4,4.3-2.4,4.3v0.1c-1.1,2.1-2.4,4.1-3,4.1c-0.4,0-1.2-5.6,0.1-13.2
	c3.1-16,10.6-41.1,10.4-42c0-0.4,1.4-4.8-4.8-7.1c-6.1-2.2-8.2,1.5-8.7,1.5c-0.5,0-0.9,1.4-0.9,1.4s6.7-28.2-12.9-28.2
	c-12.3,0-29.3,13.4-37.6,25.6c-5.3,2.9-16.6,9.1-28.6,15.6c-4.6,2.5-9.3,5.2-13.8,7.6l-0.9-1c-23.8-25.3-67.8-43.3-66-77.4
	c0.6-12.4,5-45.1,84.5-84.7c65.1-32.4,117.2-23.6,126.3-3.7c12.9,28.3-27.8,80.9-95.5,88.4c-25.8,2.9-39.4-7.1-42.7-10.8
	c-3.6-3.9-4.1-4.1-5.5-3.4c-2.1,1.1-0.9,4.7,0,6.7c2,5.2,10.3,14.5,24.5,19.3c12.4,4.1,42.7,6.3,79.2-7.8c41-15.9,73-60,63.6-96.9
	c-9.6-37.5-71.8-49.8-130.5-28.9c-35,12.4-72.9,31.9-100.2,57.5C3.4,341.3-1.8,367.8,0.5,378.7c7.6,39.1,61.6,64.7,83.2,83.6
	c-1.1,0.6-2.1,1.1-3,1.6c-10.8,5.3-52,26.8-62.4,49.7c-11.7,25.8,1.9,44.3,10.8,46.8c27.8,7.7,56.3-6.2,71.7-29.1
	c15.3-22.9,13.4-52.5,6.5-66.1l-0.2-0.5l8.4-5c5.5-3.2,10.9-6.2,15.6-8.8c-2.6,7.2-4.6,15.8-5.6,28.3c-1.1,14.7,4.8,33.7,12.7,41.1
	c3.5,3.2,7.7,3.4,10.2,3.4c9.2,0,13.3-7.6,17.9-16.6c5.7-11.1,10.7-23.8,10.7-23.8s-6.2,34.7,10.8,34.7c6.2,0,12.4-8.1,15.3-12.2
	v0.1c0,0,0.1-0.2,0.5-0.9c0.4-0.5,0.6-1,1-1.6v-0.1c2.5-4.3,8.1-14.3,16.4-30.6c10.7-21.1,21-47.6,21-47.6s1,6.5,4.1,17.1
	c1.9,6.3,5.8,13.2,8.9,20c-2.5,3.5-4,5.5-4,5.5l0.1,0.1c-2,2.6-4.2,5.5-6.6,8.3c-8.4,10.2-18.6,21.7-20,25.1
	c-1.6,3.9-1.2,6.8,1.9,9.2c2.2,1.6,6.2,2,10.4,1.6c7.7-0.5,12.9-2.4,15.6-3.6c4.1-1.5,8.9-3.7,13.4-7.1c8.3-6.2,13.4-14.9,12.9-26.6
	c-0.2-6.5-2.4-12.7-5-18.8c0.7-1.1,1.5-2.1,2.2-3.4c13.2-19.3,23.4-40.4,23.4-40.4s1,6.5,4.1,17.1c1.6,5.5,4.7,11.3,7.6,17.1
	c-12.3,10.1-20,21.7-22.7,29.3c-5,14.2-1.1,20.5,6.2,22c3.2,0.6,7.9-0.9,11.4-2.4c4.3-1.4,9.6-3.9,14.4-7.5
	c8.3-6.2,16.3-14.8,15.9-26.3c-0.2-5.3-1.6-10.6-3.6-15.5c10.4-4.3,24.1-6.8,41.2-4.7c37,4.3,44.3,27.4,43,37.1
	c-1.4,9.7-9.2,15-11.7,16.6c-2.6,1.6-3.4,2.1-3.1,3.4c0.4,1.7,1.5,1.6,3.7,1.4c3.1-0.5,19.5-7.9,20.1-25.7
	C426.8,451.5,405.2,426.5,366.6,426.8L366.6,426.8z M81.2,523.1c-12.2,13.4-29.4,18.5-36.8,14.2c-7.9-4.6-4.8-24.3,10.2-38.5
	c9.2-8.7,21-16.6,28.8-21.5c1.7-1.1,4.3-2.6,7.6-4.6c0.5-0.4,0.9-0.5,0.9-0.5c0.6-0.4,1.2-0.7,1.9-1.1
	C99.4,491.1,94.1,508.9,81.2,523.1L81.2,523.1z M170.6,462.2c-4.2,10.4-13.2,37.1-18.6,35.6c-4.7-1.2-7.5-21.5-0.9-41.5
	c3.4-10.1,10.4-22,14.5-26.7c6.7-7.5,14-9.9,15.9-7C183.7,426.8,173.2,455.7,170.6,462.2z M244.4,497.5c-1.9,0.9-3.5,1.6-4.2,1.1
	c-0.6-0.4,0.7-1.6,0.7-1.6s9.2-9.9,12.9-14.5c2.1-2.6,4.6-5.7,7.2-9.2v1C261,486.3,249.6,494.2,244.4,497.5L244.4,497.5z
	 M301.3,484.6c-1.4-1-1.1-4.1,3.4-13.8c1.7-3.9,5.7-10.2,12.7-16.3c0.9,2.5,1.4,5,1.2,7.2C318.4,476.6,307.7,482.2,301.3,484.6z"/>
</svg>
